<?xml version="1.0" encoding="UTF-8"?><svg id="Capa_2" xmlns="http://www.w3.org/2000/svg" viewBox="0 0 716.06 957.44"><defs><style>.cls-1{fill:#e9434b;}.cls-2{fill:#f49723;}.cls-3{fill:#fafafa;}.cls-4{fill:#100f0d;}.cls-5{fill:#0c0a08;}.cls-6{fill:#0c0907;}.cls-7{fill:#090908;}.cls-8{fill:#f49a6c;}.cls-9{fill:#fbfafa;}.cls-10{fill:#0a0909;}.cls-11{fill:#080808;}.cls-12{fill:#0d0b09;}.cls-13{fill:#fdfdfd;}.cls-14{fill:#fbfbfb;}.cls-15{fill:#0d0b08;}.cls-16{fill:#0c0a07;}.cls-17{fill:#0b0907;}.cls-18{fill:#0c0b09;}.cls-19{fill:#fcfbfb;}.cls-20{fill:#0c0a09;}.cls-21{fill:#fefefd;}.cls-22{fill:#0f0c0a;}.cls-23{fill:#fcfcfc;}</style></defs><g id="Capa_1-2"><path class="cls-2" d="M367.97,957.44H186.99c-6.3-5.19-9.48-17.46-6.22-25.63,5.01-12.52,10.89-24.67,16.43-36.97,5.47-12.14,10.69-24.4,16.17-36.54,3.13-6.93,1.63-13.81,.76-20.62-2.61-20.48-6.3-40.8-10.3-61.06-1.4-7.06-1.24-7.1,4.86-10.64,29.29-17.01,60.78-28.64,93.12-38.25,9.42-2.8,18.78-5.78,28.17-8.66,3.97-1.21,6.61-.24,8.95,3.14,7.02,10.13,14.16,20.17,21.33,30.19,8.02,11.21,17.16,21.2,28.65,28.94,9.26,6.24,18.71,12.19,28.66,17.25,5.12,2.6,8.58,6.11,11.02,11.53,13.33,29.7,31.38,56.34,53.06,80.62,18.06,20.23,38.01,38.22,60.64,53.2,3.75,2.48,7.71,4.62,11.53,6.99,2.41,1.5,4.33,3.38,2.12,6.49h-183.98c-2.12-1.09-2.84-3.12-3.61-5.18-5.9-15.91-11.37-31.97-17.33-47.85-2.48-6.61-1.25-12.73,1.29-18.88,1.29-3.12,3.6-4.55,7-4.58,12.82-.12,25.6,.89,38.39,1.52,9.29,.46,18.61,.92,27.81,2.43-18.08-2.6-36.3-3.2-54.51-3.94-2.49-.1-5,.02-7.49-.03-2.13-.04-4.68,.38-5.77-1.96-.96-2.07,.57-3.99,1.9-5.36,13.87-14.37,11.09-32.12,10.28-49.51-.64-13.79-2.46-27.48-3.66-41.22,1.46,15.98,2.98,31.96,3.92,47.98,.51,8.64,.75,17.29-.86,25.87-.96,5.15-4.46,8.88-7.29,12.94-9.28,13.33-5.99,11.12-21.19,11.25-19.31,.16-38.63-.15-57.95,.17-1.62,.03-3.26-.15-5.2,.4,5,.97,9.55-.57,14.17-.56,17.98,.05,35.97,0,53.95,.03,6.67,.01,7.56,1.06,5.31,7.3-2.21,6.12-2.01,11.93,.29,17.95,5.54,14.44,10.49,29.1,15.78,43.63,.87,2.41,2.49,4.87,.77,7.59Z"/><path class="cls-8" d="M638.95,957.44h-67.99c-18.29-6.46-34.33-16.8-49.18-29-31.29-25.71-57.82-55.59-78.29-90.66-5.45-9.35-10.94-18.71-14.82-28.86-1.69-4.42-4.52-7.29-8.77-9.62-14.89-8.17-29.7-16.56-42.6-27.8-7.73-6.73-13.49-15.16-19.48-23.35-13.57-18.56-26.09-37.86-39.48-56.54-1.54-2.15-2.75-4.18-.65-6.71,2.55-3.09,2.64-6.43,.23-9.61-2.78-3.65-5.88-7.08-11.13-6.18-2.19,.37-4.34,1.38-5.35-1.6-.9-2.66,.56-4.49,2.45-6.03,3.2-2.63,6.75-2.82,10.27-.88,13.95,7.69,26.26,17.05,32.4,32.54,.61,1.55,1.23,3.1,2.46,4.36-2.6-5.98-5.18-11.98-8.04-17.84-5.46-11.24-11.09-22.4-16.77-33.52-1.83-3.58-2.43-6.48,.61-9.95,3.61-4.11,1.39-8.48-.91-12.48-1.96-3.42-4.64-5.08-8.73-3.35-2.23,.94-3.26-.4-2.83-2.49,.74-3.55,3.12-5.9,6.5-6.95,3.46-1.08,4.58,1.73,5.92,4.05,9.62,16.57,19.8,32.79,29.96,49.03,4.39,7.02,8.26,14.36,12.52,21.46-6.22-12.69-13.76-24.61-21.33-36.51-3.58-5.62-7.07-11.3-10.31-17.12-1.7-3.05-1.55-5.37,1.56-7.7,3.85-2.88,4.27-6.25,2.17-10.58-2.35-4.83-6.13-7.05-10.68-6.24-2.39,.43-5.32,1.86-6.25-1.69-.83-3.14,1.72-4.78,4.14-6.06,3.56-1.9,7.22-1.23,10.63,.27,8.05,3.54,14.71,9.06,20.76,15.34,1.19,1.24,2.09,2.77,1.49,4.53-1.55,4.57,.62,8.13,3.06,11.57,7.23,10.19,14.55,20.31,20.79,31.17,2.96,5.15,5.14,10.73,8.55,15.63-4.1-9.47-9.16-18.42-14.88-26.99-2.21-3.32-3.19-6.04,.6-8.97,2.64-2.04,2.53-4.92,.89-7.66-2.84-4.74-6.77-7.73-12.61-7.47-2.53,.11-5.43,.41-5.69-3.16-.27-3.59,2.42-4.91,5.38-5.41,4.55-.77,8.97-.14,13.13,1.96,3.73,1.89,7.36,4.02,10.38,6.9,14.71,14.03,28.68,28.77,42.38,43.78,13.02,14.26,25.96,28.59,38.73,43.08,.25,.28,.52,.41,.86,.37-.15-.83-.88-1.31-1.24-2.01-1.52-2.99-.91-4.1,2.36-3.7,3.3,.4,6.54,1.25,9.83,1.78,9.28,1.48,11.5,.38,15.94-8.05,3.26-6.18,5.62-12.8,9.51-18.68,3.64-5.5,7.69-10.46,13.76-13.43,3.85-1.88,7.88-2.59,12.13-2.17,2.72,.27,4.68,1.61,5.86,4.07,.6,1.25,.97,2.63,.03,3.78-.93,1.14-2.24,.55-3.21,0-3.98-2.25-7.17-.47-9.9,2.14-3.03,2.89-5.2,6.45-6.55,10.48-1.13,3.35,0,5.46,3.21,6.67,1.87,.71,3.77,1.33,5.67,1.95,5.76,1.89,5.89,2.14,4.49,8.24-2.16,9.41-4.45,18.79-6.12,28.31-.6,3.44-1.38,6.85-1.56,10.36-.53,10.24-6.19,18.04-12.13,25.78-6.94,9.05-7.56,6.64,.61,15.3,13.2,13.99,27.75,26.11,47.06,31.63,23.39,6.69,45.1,17.18,64.24,32.54,18.57,14.9,30.95,33.68,36.43,56.95,1.36,5.77,1.03,11.19-1.7,16.49-5.25,10.23-10.73,20.32-16.82,30.09-1.07,1.72-2.41,3.17-3.97,4.44Z"/><path class="cls-17" d="M638.95,957.44c6.56-11.73,13.57-23.19,19.56-35.24,2.37-4.77,2.85-9.15,1.78-14.32-5.52-26.79-21.01-46.66-42.67-62.32-17.73-12.82-37.53-21.5-58.33-27.73-12.11-3.63-22.5-9.78-32.03-17.74-7.05-5.88-13.46-12.41-19.62-19.22-1.96-2.17-2.74-3.73-.21-6.05,1.94-1.78,3.4-4.09,5.03-6.19,6.42-8.25,11.07-16.9,11.93-27.9,1-12.73,4.51-25.19,7.8-37.58,.68-2.58,.44-3.58-2.32-3.97-2.28-.33-4.49-1.2-6.69-1.97-6.19-2.16-7.12-4.39-4.51-10.55,1.51-3.57,3.62-6.75,6.41-9.44,4.92-4.76,8.08-4.94,13.48-.84-.36-5.76-2.09-7.41-7.58-7.13-8.05,.41-14.15,4.41-19.06,10.51-4.32,5.36-7.2,11.55-10.15,17.71-1.72,3.59-3.58,7.14-5.59,10.57-1.82,3.11-4.63,4.43-8.35,4.42-6.32-.02-12.32-1.96-19.21-3.19,1.38,1.63,2.4,2.52,3.02,3.64,.76,1.37,3.88,2.23,1.72,4.31-2.24,2.15-3-.92-3.95-1.96-9.87-10.84-19.55-21.85-29.41-32.7-15.81-17.37-31.53-34.83-48.48-51.11-4.94-4.74-10.14-9.16-16.86-11.29-3.93-1.25-7.83-1.36-11.71,.21-1.77,.72-2.66,1.83-2.12,3.87,.53,2,1.72,2.02,3.41,1.64,7.18-1.6,11.71,2.39,15.46,7.67,2.48,3.49,2.4,7.26-1.18,9.69-3.38,2.3-2.57,3.92-.71,6.62,6.14,8.93,11.28,18.45,15.79,28.3,.46,1.01,1.84,2.39-.22,3.31-1.88,.84-2.23-.65-2.77-1.86-7.46-16.66-17.76-31.57-28.31-46.36-2.89-4.05-7.62-8.18-3.61-14.27,.21-.33-.52-1.51-1.05-2.06-6.2-6.32-12.6-12.4-20.97-15.84-3.52-1.45-7.08-1.95-10.62-.14-2.17,1.11-3.42,3.11-2.47,5.37,1.18,2.8,2.77,0,3.95-.35,5.28-1.59,10.44,1.17,13.44,7.54,2.51,5.35,1.59,9.57-3.62,12.25-3.12,1.61-2.17,2.89-.98,4.85,9.44,15.49,18.88,30.97,28.26,46.5,1.72,2.84,3.09,5.89,4.66,8.82,.58,1.08,1.22,1.95-.45,2.8-1.68,.86-2.06-.36-2.54-1.31-12.9-25.42-30-48.35-43.45-73.44-1.4-2.61-2.55-3.04-4.89-1.5-2.56,1.69-4.83,3.49-4.69,7.43,2.49-.64,4.3-3.06,6.95-1.97,2.3,.95,3.65,2.82,4.89,4.82,4.05,6.52,4.18,11.92-.4,15.7-2.4,1.98-1.21,3.26-.36,4.96,8.81,17.73,17.97,35.29,25.98,53.4,.56,1.26,2.71,2.96,.38,4.2-2.89,1.54-2.91-1.65-3.33-2.94-5.25-16.25-17.28-26.44-31.08-35.04-3.65-2.27-7.53-3.73-11.64-.86-1.58,1.1-2.84,2.42-2.45,4.53,.24,1.33,.38,2.32,2.54,1.63,6.88-2.2,15.12,3.08,16.44,10.16,.38,2.04,.51,4.33-1.09,5.65-3.36,2.77-2.02,4.83,0,7.69,13.39,18.88,26.81,37.73,39.77,56.91,11.06,16.36,25.22,29.12,42.28,38.83,6.65,3.79,13.17,7.83,19.96,11.33,3.5,1.8,5.43,4.27,7.03,7.79,25.15,55.47,62.97,100.37,113.03,134.99,5.76,3.98,11.86,7.34,18.45,9.85,3.73,1.42,7.25,3.33,10.33,5.93h-15c-.09-2.08,.28-3.93-2.37-5.34-27.07-14.5-49.49-34.83-70.13-57.19-24.23-26.26-43.93-55.61-58.12-88.49-1.06-2.44-2.92-3.48-4.96-4.57-12.63-6.77-24.86-14.15-36.59-22.43-13.39-9.45-22.19-22.86-31.6-35.76-5.2-7.13-10.18-14.42-15.15-21.71-1.25-1.84-2.34-2.82-4.84-2.06-42.69,12.9-85.6,25.17-124.43,48.08-2.64,1.56-3.64,2.73-3,6.09,4.51,23.85,9.27,47.66,11.72,71.86,.55,5.43-.57,10.19-2.7,14.96-9.91,22.17-19.52,44.49-29.86,66.46-3.83,8.14-3.98,15.55-.17,23.38,1.09,2.24,2.16,4.49,3.24,6.73h-4c-.94-2.13-1.92-4.24-2.83-6.38-3.49-8.18-3.67-15.87,.37-24.39,10.47-22.09,19.79-44.72,30.08-66.9,3.83-8.25,2.3-16.29,1.25-24.44-2.51-19.6-6.39-38.99-9.92-58.43-.26-1.44-.81-2.83-1.35-4.68-9.36,5.25-18.48,10.36-27.58,15.49-25.59,14.41-52,26.9-80.52,34.47-16.19,4.3-32.61,6.31-49.37,5.26-9.24-.58-15.94-5.91-19.08-15.72-3.48-10.86-2.9-22.04-1.7-33.13,.8-7.41,2.34-14.74,3.7-22.08,.4-2.17-.11-3.68-1.53-5.38-8-9.59-15.73-19.39-22.58-29.85-1.1-1.68-2.68-3.25,.13-4.76,2.62-.47,3.37,1.75,4.47,3.26,5.2,7.13,10.24,14.39,15.89,21.19,1.14,1.37,1.95,3.11,4.07,3.94,2.1-4.88,3.47-10,6.44-14.46,10.05-15.14,23.88-26.34,38.21-36.99,11.1-8.26,22.76-15.71,34.48-23.06,12.28-7.72,26.14-10.61,40.11-13.15,4.59-.84,9.23-1.33,14.4-2.2-21.35-11.71-42.17-23.4-64.91-31.17-4.28-1.46-8.64-2.46-13.12-3.02-1.64-.2-3.88,.31-4.22-2.37-.23-2.06,.49-3.2,2.76-2.89,1.8,.25,3.6,.48,5.4,.72,2.13-1.29,4.23-.35,6.29,.16,11.57,2.84,22.25,8,32.96,12.99,12.24,5.7,24.33,11.82,35.65,19.13,6.72,4.34,13.38,4.9,20.83,4.18,20.21-1.97,40.45-3.32,60.76-4,11.79-.39,23.61-.83,35.38-1.99,3.02-.3,5.92-1.16,8.58-2.54,7.11-3.68,13.89-7.91,20.49-12.44,3.01-2.07,4-4.28,2.67-8-2.38-6.66-.89-10.53,4.86-14.65,1.63-1.17,3.13-2.25,3.86-4.36,2.93-8.41,8.98-11.47,17.53-9.06,7.76,2.18,7.89,2.2,9.03-5.8,1.36-9.55,1.56-19.22,3.52-28.73,1.19-5.77-7.59-11.71-14.69-10.44-5.35,.96-9.32,4.3-13.12,7.83-6.72,6.25-12.85,13.06-18.66,20.15-5.07,6.19-9.96,12.51-14.72,18.94-.99,1.34-1.95,2.71-3.24,3.79-.77,.64-1.65,1.34-2.69,.95-1.12-.41-1.14-1.57-1.08-2.54,.69-11.14-.23-22.3,.69-33.46,.94-11.44,1.52-22.91,2.43-34.35,1.53-19.28,4.04-38.42,7.95-57.37,.52-2.51,.85-6.17,4.34-5.61,3.76,.61,2.4,4.17,1.92,6.6-5.04,25.37-7.53,51.02-9.3,76.81-.77,11.29-.17,22.63-2.17,34.41,1.99-.66,2.49-1.91,3.21-2.84,7.71-9.84,15.64-19.48,24.59-28.25,2.15-2.1,4.4-4.06,6.81-5.86,11.05-8.23,18.97-8.14,29.8,.37,3.81,2.99,10.71,.35,11.68-4.48,.23-1.15,.22-2.32,.19-3.49-.57-21.89,2.27-43.53,4.65-65.21,.64-5.79,.42-11.65,1.38-17.42,.32-1.93,.16-4.12,2.64-4.89,4,.4,3.39,3.62,3.42,6.08,.12,10-1.39,19.88-2.43,29.8-1.69,16.03-3.15,32.09-3.44,48.22-.1,5.75,.27,5.85,5.47,3.24,5.51-2.76,11.09-5.38,16.99-7.18,10.17-3.1,17.42,2.07,18.44,12.7,1.11,11.6-3.49,20.28-13.61,25.54-5.9,3.07-8.1,7.1-7.41,13.53,.44,4.1,.23,8.3-.13,12.09,9.36-2.92,19.27-2.3,28.88-3.76,6.06-.48,12.13-.59,18.2-1.08,3.9-.32,8.35-.73,11.13,3.39-.09,3.82-3.09,3.38-5.44,3.47-8.14,.31-16.28,.11-24.44,.87-10.94,1.02-21.85,2.2-32.75,3.59-1.65,.21-3.29,.59-4.96,.24-1.18-.24-2.25-.69-2.58-2.03-.32-1.31,.19-2.47,1.3-2.97,4.33-1.96,4.37-5.96,4.66-9.74,.3-3.82,.31-7.66-.41-11.46-.73-3.83,.76-6.43,4.19-8.13,4.17-2.08,8.38-4.11,11.78-7.44,6.58-6.46,7.31-16.03,1.25-22.84-.04,5.98-3.89,8.63-8.34,10.58-4.5,1.98-9.06,2.07-13.4-.6-1.52-.93-3.04-1.41-4.71-.61-4.65,2.24-9.42,4.25-13.72,7.14-3.11,2.1-4.46,5.37-5.07,8.88-1.95,11.15-1.63,22.59-4.37,33.64-.12,.49-.08,1,.02,1.49,.52,2.57,12.56,13.29,15.05,12.94,12.09-1.69,20.85,4.73,28.89,12.14,13.23,12.19,25.29,25.55,37.4,38.84,9.75,10.7,19.73,21.2,29.16,32.19,1.56,1.81,3.33,2.91,5.64,1.4,5.18-3.39,10.15-7.02,13.46-12.43,2.1-3.42,2.67-7.1,1.94-11.05-.56-3.01-2.1-3.91-4.97-2.75-4.17,1.69-8.36,3.31-12.51,5.05-1.23,.51-2.43,1.12-3.76,1.33-1.8,.29-3.43-.05-4.12-1.93-.66-1.81,.68-2.81,2.03-3.52,3.25-1.7,6.67-3.03,10.05-4.44,6.76-2.82,13.65-5.35,20.25-8.54,6.04-2.91,7.84-9.29,4.69-15.18-1.65-3.08-3.95-4.68-7.57-4.64-8.49,.08-16.99,.03-25.48,.02-1.33,0-2.67,.05-3.99-.1-2.21-.25-4.6-.53-4.5-3.52,.1-2.98,2.56-3.21,4.73-3.27,8.99-.23,17.99-.06,26.98-.1,10.37-.04,15.13-6.2,12.98-16.57-.62-3-2.87-5.81-1.34-9.14,2.96-2.43,4.32,.07,5.3,2.05,3.8,7.67,3.98,15.54-.51,22.91-2.13,3.49-2.7,6.04-.63,9.9,4.7,8.81,1.19,18.92-7.83,23.23-3.49,1.67-4.52,3.54-3.78,7.35,1.92,9.95-1.81,17.92-9.41,24.33-2.14,1.8-4.61,3.22-6.68,5.88,5.81,2.4,11.52,3.47,17.54,2.79,2.88-.33,4.15-2.59,5.35-4.78,3.28-5.99,5.87-12.36,9.36-18.22,5.52-9.27,12.64-16.73,23.8-19.1,10.39-2.2,16.56,2.87,16.36,13.51-.07,3.72-1.07,7.24-2.17,10.74-5.28,16.71-10.08,33.65-11.85,51.04-1.33,13.02-6.75,23.46-14.48,33.26-2.23,2.82-3.26,5.43-.2,8.29,1.32,1.24,2.37,1.19,2.98-.58,2.56-7.33,6.84-13.66,11.35-19.89,1.53-2.12,1.47-4.77,1.32-7.26-.75-12.06,1.42-23.28,7.02-34.25,4.57-8.94,4.87-19.3,5.96-29.23,1-9.1,1.76-18.22,2.1-27.37,.01-.33,.03-.67,.08-1,.28-1.84,.5-3.96,2.9-3.99,2.67-.04,3.08,2.06,3.11,4.21,.14,12.02-1.16,23.93-2.58,35.84-1.37,11.5-4.01,22.56-9.36,32.98-3.34,6.5-3.56,13.71-2.85,21.61,2.98-2.06,5.47-3.96,7.77-5.98,12.04-10.61,26.35-12.25,41.33-10.04,14.55,2.14,27.71,8.24,40.14,15.95,.85,.53,1.67,1.11,2.35,1.85,.83,.9,1.42,1.91,.8,3.15-.69,1.37-1.89,1.81-3.35,1.58-2.03-.31-3.71-1.43-5.45-2.42-9.01-5.12-18.33-9.48-28.36-12.27-17.66-4.91-33.56-2.42-47.41,10.36-8.67,8-16.49,16.52-20.51,27.87-2.03,5.73,2.67,13.71,8.61,14.9,1.84,.37,2.75-.86,3.78-1.9,3.52-3.56,7.4-6.72,11.42-9.69,13.26-9.8,27.76-13.84,44.23-10.1,29.19,6.62,57.31,16.4,84.83,28.01,.61,.26,1.2,.57,1.81,.85,8.78,3.98,8.68,3.97,9.58-5.85,2.65-29.04,3.92-58.16,2.92-87.29-.85-24.76-2.12-49.52-4.49-74.22-2.82-29.36-6.3-58.61-11.63-87.63-.33-1.78-.78-3.65,.79-5.17,3.61-2.11,3.46,1.3,3.76,2.92,1.86,10.11,3.66,20.24,5.16,30.41,4.07,27.59,6.77,55.35,8.9,83.14,2.69,35.01,3.1,70.11,1.9,105.2-.48,14.24-1.45,28.51-3.65,42.64-.38,2.45,.34,3.98,2.67,5.19,4.57,2.37,9.11,4.86,12.87,8.47,1.1,1.06,2.97,1.98,1.39,4.02-1.85,1.54-3.49,.6-4.93-.61-7.89-6.64-17.28-10.69-26.5-14.84-24.18-10.88-49.21-19.47-74.82-26.35-4.18-1.12-8.46-1.81-12.68-2.75-15.61-3.48-28.89,1.44-40.86,11.12-2.58,2.09-5.22,4.13-7.61,6.46-2.22,2.17-2,3.87,.66,5.55,5.1,3.23,10.47,5.8,16.24,7.57,21.28,6.52,41.65,15.05,60.02,27.81,23.38,16.25,40.04,37.21,46.46,65.61,2.07,9.14,.31,16.67-6.04,23.32-5.31,9.36-10.62,18.72-15.93,28.09h-4Z"/><path class="cls-15" d="M367.97,957.44c-5.4-15.36-10.75-30.74-16.21-46.07-5.14-14.45-5.19-14.43-.52-28.34-1.24-1.15-2.79-.56-4.17-.55-22.31,.07-44.62-.41-66.92,.76-1.5,.08-3,.1-4.49,.06-1.06-.03-2.53,.53-2.71-1.26-.2-1.97,1.42-2.01,2.68-2.13,2.15-.2,4.32-.26,6.48-.28,22.65-.14,45.29-.33,67.94-.3,2.72,0,4.22-.74,5.58-3.01,2.05-3.42,4.22-6.83,6.82-9.84,5.15-5.96,6.38-12.96,6.37-20.44-.04-21.33-2.14-42.52-4.45-63.69-.02-.17-.11-.33-.08-.49,.22-1.45-1.45-3.79,1.04-4.14,2.8-.39,2.21,2.4,2.4,3.98,.81,6.6,1.54,13.22,2.07,19.85,1.16,14.26,2.18,28.52,2.28,42.86,.07,9.89-1.79,18.75-8.53,26.31-2.07,2.32-3.62,5.11-6.15,8.74,3.69,0,6.41-.04,9.12,0,20.31,.31,40.58,1.23,60.72,4,1.38,.19,3.93-.65,3.44,2.18-.39,2.28-2.28,1.2-3.67,1.02-22.15-2.9-44.44-3.42-66.72-4.26-3.83-.14-5.69,1.24-6.99,4.66-2.22,5.8-2.88,11.33-.59,17.42,6.63,17.57,12.86,35.3,19.24,52.96h-4Z"/><path class="cls-4" d="M316.97,444.6c-8.35-2.5-16.63-3.1-25.43-1.66-11.17,1.83-22.16-.6-32.65-4.83-2.51-1.01-4.86-1.28-7.66-1.09-19.43,1.38-37.74-1.27-53.28-14.69-9.69-8.37-11.56-19.12-10.46-30.75,3.06-32.26,15.15-61.84,28.07-91.08,3.16-7.16,4.8-14.14,4.84-22.02,.16-26.96,.69-53.94,2.72-80.83,1.99-26.36,4.78-52.64,13.91-77.76,3.48-9.58,7.46-18.89,13.73-27.04,9.64-12.52,17.87-14.32,33.45-11.61,7.91,1.38,14.98,5.27,22.14,9.43,1.09-2.04,.03-3.68-.14-5.37-3.2-30.52,5.79-56.31,30.32-75.58,14.99-11.78,32.12-12.14,48.72-4.99,55.45,23.84,112.38,44.44,165.04,74.46,13.46,7.67,26.39,16.09,37.88,26.69,8.66,7.99,12.38,18.23,15.5,29.05,7.39,25.63,11.08,51.72,9.02,78.37-1.87,24.24-8.23,47.43-18.12,69.63-1.36,3.06-1.61,5.85-.95,9.13,4.32,21.33,11.12,41.69,21.74,60.81,6.47,11.66,11.53,23.9,12.69,37.51,1.48,17.3-5.5,30.62-18.29,41.56-17.87,15.28-37.96,17.99-59.79,10.64-2.88-.97-5.24-.82-8.08,.25-19.17,7.21-36.88,4.4-53.02-8.24-2.28-1.51-2.33-3.93-2.38-6.25-.4-19.68,.35-39.28,3.51-58.76,.76-4.66,2.71-8.33,5.91-11.77,16.29-17.48,28.08-37.3,29.96-61.73,.75-9.78,1.66-19.57,1.56-29.41-.03-2.87-.85-5.17-3.28-6.87-10.26-7.17-17.89-16.94-25.49-26.62-9.88-12.58-19.61-25.29-28.22-38.8-2.54-3.99-5.63-5.79-10.31-5.34-8.95,.86-17.93,1.33-26.79,3.06-7.99,1.56-9.32,.12-7.56-7.95,1.32-6.05,3.21-11.92,6.26-17.33,2.28-4.06,5.23-7.33,10.28-7.86,3.07-.32,3.64-1.69,1.89-4.3-10.89-16.17-19.75-33.61-31.27-49.4-3.67-5.04-7.65-7.34-14.1-7.34-19.89,0-39.63,.8-58.96,5.98-.81,.22-1.65,.24-2.47,.07-1.97-1.28-1-2.97-.45-4.43,3.43-9.13,8.34-17.44,15.14-24.41,8.19-8.39,18.14-9.26,28.61-2.95,5.71,3.43,11,7.44,15.86,11.96-7.62-7.36-15.54-14.35-26.41-16.51-7.27-1.45-13.08,2.11-17.98,6.72-7.89,7.43-12.59,17.04-16.76,26.89-.41,.96-.15,1.97-.08,2.97-3.05,7.13-8.39,12.73-12.66,19.06-13.24,19.63-25.96,39.53-35.16,61.49-2.32,5.53-2.58,10.89-1.45,16.58,1.3,6.53,2.23,13.13,3.34,19.7,.26,1.56,1.01,3.64-.85,4.52-1.43,.67-2.77-.77-3.96-1.66-5.12-3.83-10.28-7.17-17.19-6.97-9.66,.28-15.7,3.84-19.18,13.01-6.33,16.69-4.76,33.08,3.02,48.89,5.61,11.41,13.69,20.87,24.1,28.21,8.42,5.94,17.67,9.38,28.18,7.88,3.89-.55,6.12,.93,6.89,4.66,4.69,22.72,17.81,40.16,34.5,55.43,6.14,5.62,11.54,12.01,18.09,17.22,1.96,1.56,3.85,3.42,4.52,5.87,2.97,10.78,4.54,21.76,4.11,32.99-4.5,7.49-11.82,10.87-19.69,13.28-9.81,3.01-19.87,3.48-30,2.05-1.76-.25-3.68-.28-5.02-1.8Z"/><path class="cls-8" d="M370.78,430.76c-.45-10.48-1.97-20.83-3.91-31.13-.47-2.49-2.13-3.97-3.92-5.54-13.17-11.54-25.27-24.14-36.93-37.2-9.36-10.48-12.87-23.5-16.69-36.38-1.13-3.82-2.33-4.59-6.25-4.07-13.6,1.8-24.73-4.11-34.38-12.85-19.86-17.98-29.77-39.96-23.97-66.98,4.87-22.69,23.98-28.54,41.51-13.29,.61,.53,1.19,1.11,2.42,2.26-1.42-8.8-2.46-16.85-4.09-24.78-1.22-5.94-.65-11.33,1.75-16.92,9.86-22.9,23.05-43.83,37.23-64.2,3.71-5.32,7.55-10.55,11.33-15.83,.57-.88,1.34-.91,2.21-.51,19.13-6.02,38.86-6.56,58.69-7.08,9.35-.25,15.14,2.8,20.34,10.58,11.39,17.02,21.02,35.1,32.6,51.9-.4,.46-.59,.86-.76,.85-10.63-.65-15.02,6.23-17.76,14.89-1.45,4.59-2.4,9.34-3.78,13.95-1.05,3.51,.55,3.51,3.19,2.92,10.93-2.43,22.04-3.22,33.19-3.79,3.74-.19,5.59,1.15,7.56,4.06,12.42,18.34,25.2,36.43,39.95,53.02,4.98,5.6,10.13,11.07,16.59,15.06,1.19,.74,2.08,1.38,2.03,3.02-.61,20.43,0,40.99-7.99,60.48-5,12.19-12.33,22.91-21.19,32.43-5.5,5.91-8.34,12.23-9.24,20.19-1.95,17.24-2.99,34.49-2.43,51.83,.07,2.32,.53,4.62,.81,6.93,.06,4.25-.18,8.52,.76,12.72,.51,.17,.89,.49,1.13,.97,1.11,4.53,1.56,9.18,2.37,13.77,.57,3.23-.14,6.21-1.81,9.1-17.4,30.15-34.59,60.43-52.08,90.53-5.36,9.22-11.04,18.24-16.23,27.56-1.52,2.74-3.02,5.61-5.95,7.24-9.41,1.08-18.83,2.11-28.24,3.26-2.07,.25-2.08-.75-2.06-2.28,.08-6.16,.17-12.32,.02-18.48-.05-2.05,.77-2.92,2.49-3.7,3.64-1.65,7.05-3.76,10.18-6.27,7.79-6.26,10.55-14.89,7.83-24.56-2.11-7.5-6.87-10.28-14.34-8.34-7.31,1.9-13.83,5.64-20.55,8.92-1.44,.7-2.89,1.4-4.83,2.34-1.04-12.46,.07-24.36,.92-36.25,1.2-16.93,4.09-33.72,4.41-50.72,.03-1.74,1.3-4.16-1.68-4.98-1.14-.86-1.75-2.08-1.77-3.44-.11-7.1-1.29-14.28,1.34-21.21Z"/><path class="cls-2" d="M417.08,596.47c16.99-29.19,34.01-58.37,50.97-87.58,7.68-13.24,15.17-26.59,22.9-39.81,1.62-2.78,1.1-5.43,.67-8.2-.64-4.09-1.81-8.12-1.59-12.32,1.99-1.98,4.31-1.21,6.58-.79,6.72,1.23,11.41,5.67,16.38,9.92,14.8,12.63,30.44,24.21,46.03,35.84,11.21,4.01,22.43,7.98,33.63,12.03,25.26,9.14,50.32,18.8,74.29,31.01,3.57,1.82,7.78,3.25,9,7.9,2.59,15.57,5.27,31.12,7.32,46.78,2.7,20.63,4.9,41.31,6.47,62.04,2.44,32.06,3.83,64.17,3.05,96.33-.47,19.3-1.69,38.57-3.76,57.78-.53,4.94-2.85,2.15-4.57,1.38-28.45-12.74-57.83-22.67-88-30.58-24.06-6.3-42.75,1.93-58.84,18.83-3.19,3.35-5.23,3.75-8.15,.43-.33-.37-.73-.68-1.11-1.01-9.02-7.77-9.18-8-4-18.66,6.83-14.06,17.51-24.67,30.85-32.49,10.68-6.27,22.31-5.82,33.96-3.22,12.48,2.79,23.87,8.18,34.74,14.79,1.32,.8,3.11,3.22,4.5,.5,1.08-2.11-1.59-2.53-2.8-3.3-9.46-6-19.5-10.77-30.26-13.99-20.96-6.26-39.82-3.27-55.81,12.54-1.15,1.14-2.4,2.18-4.15,3.75-.93-9.62-1.32-18.77,3.03-26.77,5.81-10.71,7.82-22.22,9.35-33.92,1.45-11.06,2.28-22.19,2.54-33.35,.03-1.35,.89-3.36-1.57-3.39-2.49-.03-1.59,2.1-1.65,3.38-.9,17.46-1.95,34.9-6.05,51.97-.62,2.57-1.23,5.31-2.6,7.5-6.34,10.13-7.38,21.24-6.47,32.72,.29,3.69-.42,6.6-2.93,9.53-5.43,6.35-9.07,13.79-11.2,21.85-.51-.11-.72-.09-.83-.19-8.07-7.07-8.53-7.48-1.63-15.31,9.64-10.94,11.54-24.21,13.67-37.75,2.43-15.44,6.32-30.6,11.16-45.49,1.3-4.01,2.22-8.02,1.83-12.25-.56-6.06-4.67-9.65-10.75-9.29-10.7,.62-18.28,6.44-24.19,14.87-4.42,6.31-7.3,13.44-10.69,20.3-4.04,8.18-4.76,8.57-13.89,7.69-1.98-.19-3.96-.56-5.89-1.03-3.04-.73-6.04-1.62-9.83-2.65,3.53-2.81,6.6-5.17,9.59-7.63,8.54-7.03,12.15-15.76,8.52-26.58-1.26-3.75,1.47-3.73,3.38-4.56,8.33-3.61,11.77-9.11,10.86-17.4-.32-2.93-1.49-5.55-3.34-7.67-1.88-2.16-2.02-3.36,.19-5.63,5.83-5.99,6.89-17.52,2.71-24.72-.74-1.27-1.28-3.44-3.62-1.92-1.77,1.08-3.55,.43-5.28-.07-12.43-3.6-25.11-5.95-37.88-7.9-2.1-.32-4.33-.5-5.8-2.41-.22-2.53-2.26-1.91-3.76-2.12-8.43-1.2-16.84,.83-25.27,.28Z"/><path class="cls-2" d="M370.78,430.76c.14,8.22,.29,16.43,.43,24.65-.94,.24-1.35,.9-1.38,1.81-.85,27.29-6.41,54.23-5.89,81.62,0,.33,0,.67,0,1,.02,10.04-.72,11.03-9.68,15.01-1.78,.79-1.99-.47-2.7-1.16-10.94-10.64-19.24-11.16-31.03-1.45-12.3,10.12-21.96,22.7-31.78,35.12-.98,1.24-1.54,2.92-2.56,3.28,0-10.73-.55-21.65,.12-32.5,1.32-21.75,2.98-43.49,6.63-65.01,1.11-6.55,2.4-13.07,3.55-19.62,.23-1.32,1.52-3.21-.58-3.81-2.55-.72-2.37,1.84-2.67,3.23-3.27,15.3-5.55,30.77-7.12,46.33-2.75,27.33-4.39,54.73-4.48,82.28,1.73,.14,1.86-1.54,2.55-2.47,10.49-14,21.11-27.89,33.72-40.1,3.83-3.71,7.73-7.47,12.88-9.26,7.11-2.47,15.73,1.06,19.39,7.62,.51,.91,.92,1.75,.54,2.8-3.79,10.52-2.41,21.78-4.68,32.51-.54,2.57-.48,6.04-2.11,7.39-1.77,1.46-4.26-1.57-6.58-2.3-4.26-1.34-8.44-1.96-12.63,.07-2.18,1.06-4.54,2.74-4.38,5.04,.29,4.34-2.13,5.86-5.3,7.74-5.55,3.28-6.64,7.74-3.43,14.2,1.7,3.41,1.45,5.49-2,7.12-.74,.35-1.39,.91-2.04,1.43-14.48,11.52-30.73,16.36-49.44,16.5-28.6,.21-57.21,2.16-85.67,5.37-2.65,.3-4.47-.84-6.45-2-20.56-12.01-41.41-23.46-63.78-31.83-5.28-1.98-10.78-3.36-16.18-5.02,4.1-10.77,10.1-20.58,16.08-30.32,14.95-24.32,31.89-47.29,49.72-69.56,10.77-13.45,21.64-26.87,33.76-39.19,3.6-3.65,6.7-7.8,10.54-11.26,6.04-5.46,13.62-6.5,21.2-7.43,9.87-1.21,19.84-1.33,29.72-2.2,15.13-1.34,30.24-.44,45.36-.83,1.33-.03,2.7,.11,3.8-.85,5.39-4.72,11.75-7.34,18.7-8.73,.74-.15,1.37-.88,2.06-1.34,11.37,1.06,22.71,1.8,33.93-1.43,7.84-2.26,14.57-6.16,19.88-12.41Z"/><path class="cls-2" d="M658.87,929.35c.14-.48,.16-1.05,.44-1.41,7.2-9.31,5.23-19.22,2.14-29.33-7.5-24.54-23.18-42.74-43.86-57.1-17.81-12.37-37.54-20.7-58.15-27.09-7.21-2.24-14.01-5.26-20.23-9.54-1.39-.96-3.01-1.73-1.07-3.72,12.95-13.28,27.24-23.88,47.18-21.49,11.75,1.41,23.11,4.82,34.39,8.34,23.37,7.29,46.37,15.56,68.37,26.39,6.42,3.16,12.88,6.31,18.08,11.41,.83,.82,1.76,.81,2.77,.65,1.26,4.77,4.04,8.86,5.34,13.76,4.56,17.22,.14,32.39-10.51,45.56-9.27,11.46-17.21,23.87-26.53,35.27-4.84,5.91-10.66,9.03-18.36,8.31Z"/><path class="cls-2" d="M77.87,618.49c31.57,5.05,57.85,22.23,86.46,37.15-9.88,1.72-18.44,3.15-26.98,4.71-12.72,2.31-24.52,6.74-35.44,13.94-17.79,11.72-35.7,23.22-51.32,37.85-14.08,13.19-17.6,18.75-23.51,36.59-6.01-6.74-11.17-13.78-16.45-20.73-2.89-3.81-4.93-8.25-8.59-11.47-2.45-2.21-2.31-4.94-1.64-7.83,3.31-14.21,10.99-26.26,19.02-38.1,7.08-10.45,14.87-20.45,23.69-29.41,8.91-9.06,18.08-18.16,30.56-22.6,1.47-.52,2.76-1.16,4.18-.08Z"/><path class="cls-12" d="M559.01,493.52c-1.51,.99-2.43-.14-3.47-.93-16.27-12.38-32.99-24.2-48.04-38.14-4.85-4.49-10.9-6.19-17.49-5.89-.12-.41-.25-.83-.37-1.25,.18-1.71,.82-2.8,2.84-2.51,6,.86,12,2.1,16.51,6.34,14.95,14.06,31.73,25.79,47.9,38.3,1.29,1,3.71,1.54,2.12,4.09Z"/><path class="cls-8" d="M334.27,670.92c-5.97-3.55-11.07-8.1-17.16-11.24-4.09-2.12-8.31-3.45-12.88-1.22-4.99,2.43-6.55,6.34-4.52,11.53,1.24,3.17,3.4,5.7,5.62,8.18,10.39,11.56,18.23,24.95,27.71,37.81-13.28,4.14-25.95,8.46-38.83,12.03-40.78,11.31-77.91,30.57-114.21,51.74-28.09,16.38-57.05,30.92-88.73,39.21-12.92,3.38-26.04,5.51-39.45,5.48-18.45-.05-25.54-6.28-26.64-24.65-1.21-20.18,2.58-39.87,8.11-59.1,3.06-10.63,11.27-18.36,19.24-25.75,18.41-17.08,39.12-31.07,60.85-43.44,12.77-7.27,27.45-8.88,41.77-10.96,33.84-4.93,67.97-7.02,102.08-7.44,20.54-.25,38.21-5.63,53.93-18.33,2.84-2.29,4.14-2.49,5.92,1.36,5.44,11.73,11.41,23.22,17.18,34.8Z"/><path class="cls-8" d="M446.1,598.31c16.58,2.21,33.01,5.15,48.95,10.37-.6,1.64,.48,2.84,1.07,4.18,2.18,4.95,2.36,10.01,.57,15.1-1.97,5.63-5.24,7.87-11.19,7.88-10,0-19.99-.03-29.99,.03-1.46,0-3.81-.8-3.59,1.98,.19,2.33,2.31,1.4,3.59,1.41,9.66,.08,19.33,.04,28.99,.04,7.55,0,13.04,6.83,11.23,14.27-.97,3.98-2.97,7.19-7.22,8.86-9.29,3.63-18.49,7.52-27.62,11.52-1.66,.72-5.44,.64-4.32,3.32,1.33,3.18,3.99,.15,5.84-.53,5.15-1.88,10.21-4.03,15.2-6.3,2.51-1.14,3.65-1.09,4.45,1.99,1.86,7.21,.85,13.51-4.53,18.88-.47,.47-.89,1-1.36,1.47q-11.81,11.83-22.76-.35c-19.1-21.12-38.03-42.42-58.46-62.29-6.34-6.17-12.93-12.09-22.06-13.9-.98-.19-2.11-.77-2.92-.47-7.52,2.78-10.98-3.15-15.94-6.68-5.71-4.06-7.04-8.22-5.09-14.85,2.4-8.15,1.91-16.83,2.91-25.26,.84-7.12,3.48-12.75,10.76-15.34,2.34-.83,4.55-2.06,6.72-3.28,3.45-1.94,6.18-3.56,10.19,.17,4.01,3.73,15.54-.63,17.81-5.68,.97-2.15-.82-3.79-.51-5.93,3.3-.16,5.25,1.58,6.52,4.33,3.22,6.97,1.41,16.38-4.22,21.63-3.69,3.44-7.93,6.12-12.62,7.91-2.82,1.07-3.74,2.45-3.23,5.53,1.04,6.27,.43,12.62,.11,18.94-.12,2.4-.85,3.58-3.39,3.76-1.22,.09-3.48-.31-3.13,2.11,.35,2.43,2.36,1.32,3.6,1.15,12.7-1.76,25.44-3.14,38.22-4.2,7.48-.62,14.96-.78,22.46-.73,1.64,.01,3.71,1.18,4.95-1.03Z"/><path class="cls-8" d="M537.15,685.08c-.89,2.95-1.98,6.57-3.06,10.19-.41,1.37-1.36,1.16-2.36,.88-1.59-.46-3.18-.92-4.76-1.4-7.27-2.21-7.77-3.39-3.92-9.82,1.01-1.69,2.2-3.33,3.56-4.76,1.8-1.9,3.79-4.4,6.67-3.41,3.31,1.13,3.34,4.58,3.86,8.32Z"/><path class="cls-8" d="M338.87,618.77c-.19,2.31-2.04,3.75-4.47,4.76-2.65,1.1-3-1.28-3.92-2.62-1.3-1.9-2.52-3.88-3.5-5.96-.63-1.33-2.66-2.68-1.04-4.3,1.51-1.5,3.53-2.5,5.85-1.91,2.97,.75,7.12,6.35,7.07,10.03Z"/><path class="cls-8" d="M363.77,629.76c5.9-1.64,12.03,1.48,13.89,6.71,.96,2.7-1.02,3.87-2.66,5.25-2.19,1.84-2.83-.3-3.71-1.5-2.52-3.41-4.97-6.89-7.52-10.46Z"/><path class="cls-8" d="M317.98,679.63c.21,1.89-.75,3.36-2.21,4.18-1.73,.96-2.05-1.08-2.83-1.93-2.14-2.32-4.2-4.72-6.23-7.14-.69-.82-2.06-1.57-1.3-2.89,.6-1.04,1.81-1.39,3.06-1.38,3.48,.03,9.33,5.66,9.51,9.16Z"/><path class="cls-8" d="M324.79,631.72c-.17,1.93-.82,3.89-2.64,4.48-2.42,.79-2.23-1.91-2.95-3.12-1.36-2.27-2.19-4.85-3.51-7.14-1.2-2.07,0-3.12,1.36-4.11,1.51-1.1,2.8-.51,3.86,.85,2.08,2.67,3.48,5.64,3.89,9.03Z"/><path class="cls-8" d="M384.53,548.53c-2.21,.23-4.54-.5-4.99-2.43-.43-1.83,2.24-1.95,3.6-2.64,2.36-1.2,4.9-2.04,7.31-3.15,1.48-.68,2.49-.5,3.24,1.01,.67,1.35,.69,2.5-.63,3.5-2.55,1.94-5.29,3.41-8.53,3.71Z"/><path class="cls-8" d="M549.28,208.53c3.15,.15,6.37-.07,9.43,.53,9.02,1.75,14.78,7.42,17.24,16.12,7.86,27.78-1.37,69.69-31.43,90.01-.82,.55-1.76,.92-2.64,1.37-1.57-1.68-1.24-3.6-.79-5.6,3.3-14.7,5.49-29.57,7.18-44.53,.57-5.08-.84-10.28,1.02-15.25,.31-1.19,1.93-.06,2.08-.93,1.43-8.44,7.49-14.05,12.26-20.49-4.07,3.17-6.67,7.55-9.67,11.62-.95,1.29-2.09,4.4-4.14,.72-.38-9.95-1.13-19.88-1.53-29.82-.05-1.32-.03-2.68,.99-3.74Z"/><path class="cls-23" d="M549.28,208.53c1.32,11.6,1.75,23.25,1.79,34.92,1.82,2.54,1.1,4.97-.35,7.36-1.43,6.66-.63,13.47-1.43,20.21-1.67,13.99-3.81,27.87-7.03,41.58-.3,1.28-.26,2.63-.37,3.95-1.96,6.84-3.94,13.67-5.88,20.51-.4,1.43-.42,3.16-2.72,2.47-2.37-.71-.77-2.1-.47-3.13,6.7-23.53,11.88-47.37,13.69-71.8,3.91-52.84-3.14-103.41-31.65-149.42-.7-1.13-2.45-2.24-.27-3.59,2.27-1.41,2.48,1.01,3.09,1.94,14.49,22.3,23.05,46.93,28.21,72.84,1.46,7.32,2.29,14.76,3.4,22.15Z"/><path class="cls-3" d="M573.48,347.61c-.27-11.8-.68-23.11-2.37-34.34-.19-1.24-1.14-3.12,1.24-3.63,2.29-.49,1.91,1.48,2.05,2.54,4.07,32,4.8,63.76-7.59,94.41-3.33,8.24-8.22,15.57-14.67,21.76-.78,.75-1.42,2.62-3.14,1.03-1.49-1.38-.51-2.19,.49-3.17,14.79-14.63,19.6-33.48,22.42-53.15,1.23-8.59,1.34-17.26,1.57-25.45Z"/><path class="cls-3" d="M239.25,361.09c.31-17.19,2.11-35.7,5.95-53.98,.25-1.18-.2-3.51,2.1-3.16,2.61,.39,1.54,2.41,1.23,3.94-6.27,30.92-8.07,61.96-2.54,93.19,1.22,6.87,2.97,13.61,5.34,20.19,.55,1.53,1.78,3.32-.71,4.06-2.42,.72-2.02-1.83-2.4-2.9-6.88-19.36-8.82-39.48-8.98-61.34Z"/><path class="cls-14" d="M253.81,345.66c-.21-1.08-.17-1.94,1.26-2.16,2.18-.34,1.86,1.26,2.1,2.49,3.02,15.34,7.27,30.32,13.58,44.65,5.87,13.33,13.03,25.8,24.12,35.6,.98,.87,2.21,1.56,.78,3.11-1.57,1.7-2.35-.02-3.16-.74-11.2-9.9-18.6-22.42-24.62-35.88-6.33-14.15-10.52-28.97-13.68-44.11-.2-.97-.26-1.98-.38-2.97Z"/><path class="cls-3" d="M337.09,103.34c-.74,.17-1.47,.34-2.21,.51-2.1-.61-1.23-2.08-.76-3.18,4.11-9.66,8.83-18.96,16.28-26.57,8.9-9.08,18.63-10.56,29.83-4.53,6.64,3.58,12.38,8.37,17.72,13.64,.95,.93,3.52,1.73,1.3,3.78-1.83,1.7-2.6-.46-3.48-1.31-4.94-4.73-10.08-9.18-16.07-12.54-10.89-6.11-18.65-5.16-27.29,3.82-7.22,7.5-12.14,16.47-15.33,26.38Z"/><path class="cls-4" d="M295.86,191.94c6.37-18.82,19.36-28.28,37.54-31.37,7.94-1.35,15.9-1.23,23.89-.31,3.27,.38,5.69,1.74,7.48,4.33,5.27,7.58,7.14,16.41,8.9,25.21,.67,3.32-2.11,1.73-3.24,1.5-13.93-2.86-28-4.08-42.2-3.56-10.63,.39-21.19,1.64-32.39,4.19Z"/><path class="cls-4" d="M465.85,266.38c-6.92,0-13.96,1.53-20.63-1.62-6.95-3.3-6.86-10.1-8.02-16.52-3.65,2.28-4.58,6.99-8.5,8.7-.7-.7-.52-1.4-.16-2.24,3.32-7.91,7.76-15.06,14.2-20.84,14.13-12.67,32.14-11.45,44.43,3.04,3.57,4.21,6.45,8.85,8.33,14.07-2.7,.5-3.8-1.62-5.12-3.23-3.81-4.64-7.87-8.99-13.01-12.18-1.51-.94-2.96-2.11-5.29-2.14,3.87,7.99,4.46,16.02,1.31,24.18-1.47,3.82-3.53,7.13-7.53,8.79Z"/><path class="cls-4" d="M313.71,251.96c-.19-.26-.59-.59-.53-.76,8.5-23.48,31.37-34.73,51.64-18.29,7.53,6.11,12.25,14.25,15.84,23.11-3.62,.34-4.47-2.92-6.26-4.9-1.32-1.47-2.5-3.08-3.15-4.21,.23,7.13-1.25,13.99-8.24,18.59-6.94,1.32-13.88,2.12-20.85,.13-4.15-1.56-6.12-4.98-7.25-8.91-2.28-7.91-2.12-15.69,2.27-23.78-7.57,2.71-12.85,7.17-17.38,12.76-1.83,2.25-2.89,5.32-6.1,6.25Z"/><path class="cls-1" d="M464.1,335.75c-7.56,7.15-15.85,11.3-24.45,14.61-20.03,7.72-40.65,8.44-61.56,4.14-3.95-.81-3.22-2.35-1.08-4.56,5.57-5.72,12.72-8.5,20.18-10.23,19.66-4.58,39.57-6.42,59.74-4.31,2.06,.22,4.15,.21,7.16,.34Z"/><path class="cls-13" d="M313.71,251.96c6.35-9.8,13.82-18.25,26.36-21.58-7.47,12.57-7.8,24.3,2.09,35.25-10.55-.21-19.63-4.61-28.5-9.8-2.79-1.63-.14-2.6,.04-3.87Z"/><path class="cls-21" d="M465.85,266.38c10.01-11.26,10.95-22.37,2.71-35.73,7.63,1.34,13.01,5.62,18.13,10.53,3.19,3.06,4.95,7.37,8.81,9.79,1.06,3.72-.9,5.33-4.02,6.95-8.12,4.23-16.56,7.23-25.63,8.47Z"/><path class="cls-11" d="M395.84,253.32c-1.07,9.03-4.08,18.4-6.23,27.96-1.67,7.46-3.54,14.87-5.49,22.26-.71,2.69-.22,4.72,1.6,6.81,3.53,4.04,7.33,7.7,11.87,10.59,1,.64,2.74,1.05,1.46,2.92-1.25,1.83-2.3,.43-3.32-.22-5.7-3.59-10.43-8.2-14.42-13.63-1.35-1.84-1.25-3.51-.74-5.58,3.41-13.7,6.39-27.52,10.1-41.14,3.48-12.77,.67-23.95-6.92-34.33-.59-.81-1.2-1.6-1.85-2.35-.84-.96-1.37-1.84-.2-2.98,1.44-1.4,2.07,.01,2.72,.8,6.76,8.16,11.03,17.35,11.41,28.88Z"/><path class="cls-7" d="M406.48,418.77c-5.05,.04-9.97-.62-14.72-2.4-.94-.35-2-.7-1.5-2.06,.48-1.28,1.19-1.57,2.68-1.08,14.8,4.86,28.62,.88,42.04-5.2,16.44-7.45,30.25-18.66,43.09-31.16,.84-.81,1.64-1.66,2.47-2.47,.83-.81,1.61-1.82,2.88-.58,1.24,1.21,.44,2.04-.45,2.89-3.01,2.88-5.93,5.85-9.03,8.63-15.65,13.98-32.39,26.15-53.17,31.45-2.41,.62-4.86,1.17-7.32,1.52-2.3,.32-4.65,.32-6.98,.45Z"/><path class="cls-10" d="M293.3,242.11c1.17,.25,.94,1.71,1.15,2.68,4.02,18.82,7.96,37.65,11.97,56.47,.27,1.25,.59,2.26-.99,2.74-2.14,.66-2.09-1.05-2.34-2.24-4-18.82-7.97-37.65-11.94-56.48-.33-1.56-.61-3.1,2.15-3.18Z"/><path class="cls-9" d="M428.69,256.94c2.51-4.48,5.66-8.47,9.79-13.13-.09,8.3,1.29,15.37,6.73,20.95-6.13,.6-11.29-2.26-16.57-4.7-2.24-1.03-.02-2.08,.05-3.12Z"/><path class="cls-19" d="M363.02,265.51c5.14-5.92,7.93-12.68,6.76-21.36,5.05,3.49,6.44,9.09,10.88,11.88,.73,2.73-.42,4.26-2.98,5.24-4.77,1.84-9.54,3.63-14.67,4.24Z"/><path class="cls-20" d="M256.63,230.98c.91,.4,1.83,.77,2.72,1.21,13,6.33,21.83,16.43,26.86,29.9,.46,1.24,1.91,2.77-.3,3.78-2.46,1.12-2.31-1.33-2.71-2.39-4.89-13.04-13.57-22.58-26.08-28.65-1-.49-2.41-.57-2.03-2.25,.18-.82,.5-1.57,1.53-1.6Z"/><path class="cls-18" d="M422.01,313.07c-.72,1.31-1.55,2.05-3.16,1.15-5.13-2.9-10.77-2.92-16.44-2.78-1.36,.03-3.29,.68-3.28-1.74,0-2.16,1.88-1.45,2.99-1.54,5.85-.52,11.58,.13,17.03,2.44,1.17,.5,2.54,.93,2.85,2.48Z"/><path class="cls-6" d="M650.69,608.71c-.66,6.7-2.92,13.12-6.18,19.15-13.95,25.81-33.46,47.12-54.64,67.05-.99,.93-2.13,2.7-3.68,.88-1.61-1.89,.66-2.58,1.55-3.4,18.54-17.14,35.11-35.96,48.77-57.24,4.78-7.45,8.96-15.22,10.45-24.1,.29-1.76,1.01-4.1-.48-5.23-1.83-1.39-3.79,.28-5.43,1.34-9.36,6.06-16.11,14.86-23.68,22.78-16.14,16.88-33.95,31.91-51.74,46.97-1.02,.86-2.23,2.63-3.66,.6-1.43-2.04,.89-2.54,1.83-3.34,11.8-10.02,23.51-20.15,34.94-30.6,9.36-8.55,17.95-17.82,26.56-27.09,4.98-5.36,10.14-10.68,17-13.69,5.23-2.29,8.53,.08,8.39,5.9Z"/><path class="cls-16" d="M521.31,612.09c-8.28-11.26-16.28-21.66-25.12-31.39-5.5-6.05-11.23-11.86-18.03-16.47-8.84-5.98-17.02-5.47-25.04,1.56-3.27,2.86-6.14,6.1-8.5,9.78-.6,.94-1.15,2.15-2.69,1.13-1.49-.98-.77-1.91-.09-2.91,4.35-6.43,9.38-12.09,16.66-15.36,7.25-3.26,13.97-1.99,20.34,2.27,11.94,7.97,21.04,18.85,30.08,29.75,3.92,4.73,7.61,9.65,11.72,14.9,5.46-11.57,10.02-23.12,14.4-34.73,7.27-19.31,14.03-38.79,17.98-59.11,.26-1.32,.29-2.91,2.23-2.53,2.05,.4,1.23,1.92,.99,3.18-3.9,20.34-10.62,39.83-17.89,59.14-5.09,13.54-10.59,26.93-17.03,40.8Z"/><path class="cls-5" d="M209,516.22c0-7.49-.06-14.99,.05-22.48,.02-1.39-1.02-3.94,1.67-3.77,2.44,.15,1.5,2.61,1.46,4.06-.47,18.15-.1,36.3,.98,54.41,1.74,29.41,4.32,58.73,13.9,86.9,.45,1.31,1.65,3-.75,3.57-2.29,.54-2.03-1.65-2.46-2.86-5.62-15.75-8.57-32.12-10.62-48.62-2.94-23.63-4.34-47.38-4.22-71.21Z"/><path class="cls-5" d="M156.83,569.34c-.1-4.02-.02-8.03,1.46-11.82,1.88-4.83,5.46-5.35,8.57-1.29,.9,1.18,1.59,2.54,2.31,3.85,13.52,24.65,27.03,49.31,40.53,73.97,.48,.87,.91,1.77,1.4,2.65,.48,.87,.31,1.5-.53,2.07-1.06,.72-1.84,.52-2.44-.56-.57-1.02-1.12-2.04-1.68-3.07-13.43-24.51-26.84-49.03-40.3-73.53-.92-1.67-1.52-4.67-3.57-4.23-2.17,.46-2.13,3.58-2.32,5.6-1.16,12.37,1.65,24.13,5.95,35.61,.23,.62,.57,1.21,.78,1.84,.38,1.14,1.67,2.39-.37,3.3-2.09,.93-2.17-.96-2.6-1.98-4.35-10.36-7.13-21.09-7.19-32.4Z"/><path class="cls-22" d="M550.72,250.81c.11-2.45,.23-4.91,.35-7.36,3.54-5.44,7.13-10.85,11.91-15.32,.76-.71,1.35-2.12,2.79-.84,1.47,1.3,.69,2.17-.36,3.23-6.03,6.07-11.19,12.72-13.75,21.07-.02,.07-.38,.13-.42,.08-.2-.26-.35-.56-.52-.85Z"/></g></svg>